<svg width="28" height="28" viewBox="0 0 28 28" fill="none" xmlns="http://www.w3.org/2000/svg">
<rect width="28" height="28" rx="6" fill="#0658AF"/>
<g clip-path="url(#clip0_5064_7634)">
<path d="M14 15.7995C14.5181 15.8002 15.0276 15.6785 15.4875 15.446L15.7003 15.7865C15.1764 16.058 14.5935 16.2004 14.0005 16.1995L13.9995 16.1995C13.4065 16.2004 12.8236 16.058 12.2997 15.7865L12.5125 15.446C12.9724 15.6785 13.4819 15.8002 14 15.7995ZM14 15.7995C13.9998 15.7995 13.9997 15.7995 13.9995 15.7995L14 15.4995L14.0005 15.7995C14.0003 15.7995 14.0002 15.7995 14 15.7995ZM17.6714 12.037L17.7045 12.2995H17.969H18.5C18.6857 12.2995 18.8637 12.3732 18.995 12.5045C19.1263 12.6358 19.2 12.8138 19.2 12.9995V14.9995C19.2 15.1851 19.1263 15.3632 18.995 15.4944C18.8637 15.6257 18.6857 15.6995 18.5 15.6995H17.969H17.7045L17.6714 15.9619C17.5586 16.8561 17.1234 17.6784 16.4475 18.2745C15.8468 18.8041 15.0928 19.1228 14.3 19.1873V18.7858C15.0652 18.716 15.7857 18.3807 16.3335 17.8329C16.9523 17.214 17.3 16.3747 17.3 15.4995V12.4995C17.3 11.6242 16.9523 10.7849 16.3335 10.166C15.7146 9.54714 14.8752 9.19946 14 9.19946C13.1248 9.19946 12.2854 9.54714 11.6665 10.166C11.0477 10.7849 10.7 11.6242 10.7 12.4995V15.6995H9.5C9.31435 15.6995 9.1363 15.6257 9.00503 15.4944C8.87375 15.3632 8.8 15.1851 8.8 14.9995V12.9995C8.8 12.8138 8.87375 12.6358 9.00503 12.5045C9.1363 12.3732 9.31435 12.2995 9.5 12.2995H10.031H10.2955L10.3286 12.037C10.4415 11.143 10.8767 10.3208 11.5527 9.72482C12.2286 9.12884 13.0988 8.8 14 8.8C14.9012 8.8 15.7714 9.12884 16.4473 9.72482C17.1233 10.3208 17.5585 11.143 17.6714 12.037ZM9.5 12.6995H9.2V12.9995V14.9995V15.2995H9.5H10H10.3V14.9995V12.9995V12.6995H10H9.5ZM18 12.6995H17.7V12.9995V14.9995V15.2995H18H18.5H18.8V14.9995V12.9995V12.6995H18.5H18Z" stroke="white" stroke-width="0.6"/>
</g>
<defs>
<clipPath id="clip0_5064_7634">
<rect width="12" height="12" fill="white" transform="translate(8 8)"/>
</clipPath>
</defs>
</svg>
