<svg width="170" height="32" viewBox="0 0 170 32" fill="none" xmlns="http://www.w3.org/2000/svg">
<g clip-path="url(#clip0_3469_49770)">
<path fill-rule="evenodd" clip-rule="evenodd" d="M42.948 17.2823L29.9091 4.50718C29.5265 4.13504 29.0167 3.92985 28.4745 3.92985H21.6782V12.644L37.4047 12.5564L18.3203 31.1321L30.1799 31.1816L42.94 18.7937C43.3669 18.379 43.3702 17.7011 42.948 17.2823Z" fill="white"/>
<path fill-rule="evenodd" clip-rule="evenodd" d="M0.971791 14.4018L14.0158 27.1665C14.3986 27.5387 14.9084 27.7441 15.4501 27.7441H22.2264V19.039L6.51427 19.1265L23.2201 2.86629L25.5989 0.550892L13.7387 0.501329L0.978942 12.8898C0.551383 13.3046 0.548403 13.9828 0.971791 14.4018Z" fill="white"/>
<path d="M63.919 15.1993L81.0545 2.89661H73.491L58.7418 13.4717H58.4042V2.89661H53.3027V28.7871H58.4042V17.8422H58.7764L73.6775 28.7871H81.5124L63.919 15.823V15.1993Z" fill="white"/>
<path d="M109.361 14.2141C109.361 6.72449 104.418 2.59972 95.4445 2.59972H94.076C85.1995 2.59972 80.3113 6.08108 80.3113 12.4024V12.9606H85.5269V12.4024C85.5269 7.85161 90.1758 6.89664 94.076 6.89664H95.4445C98.3239 6.89664 100.519 7.48817 101.969 8.65529C103.323 9.74502 104.062 11.3764 104.17 13.5078H89.2826V17.8044H104.182C104.098 22.3086 101.003 24.7854 95.4445 24.7854H94.076C88.5943 24.7854 85.4509 22.6036 85.4509 18.7991V18.2406H80.2734V18.7991C80.2734 25.334 85.3043 29.082 94.076 29.082H95.4445C104.289 29.082 109.361 24.8489 109.361 17.4679V14.2141Z" fill="white"/>
<path d="M125.46 7.45206L130.461 17.6133H119.809L124.741 7.45206H125.46ZM128.502 2.89661H121.847L109.254 28.7871H114.363L117.746 21.8357H132.531L135.952 28.7871H141.254L128.658 3.21397L128.502 2.89661Z" fill="white"/>
<path d="M165.26 15.4093V15.1247C167.542 14.0367 168.795 12.2763 168.795 10.1467V9.7769C168.795 7.09661 167.16 2.6 156.209 2.6H155.334C146.826 2.6 142.14 5.85791 142.14 11.7738V12.6279H147.318V11.8106C147.318 7.59627 151.677 6.71173 155.334 6.71173H156.209C161.125 6.71173 163.618 7.84233 163.618 10.0728V10.4426C163.618 12.7299 160.969 13.5449 158.49 13.5449H151.263V17.6195H158.528C160.974 17.6195 164.226 17.9604 164.226 20.9067V21.2765C164.226 23.5896 161.272 24.9706 156.323 24.9706H155.449C149.563 24.9706 147.052 23.2575 147.052 19.2428V18.4255H141.874V19.2428C141.874 22.4935 143.034 24.9787 145.321 26.6304C147.574 28.2572 150.956 29.082 155.373 29.082H156.247C167.694 29.082 169.403 24.3539 169.403 21.5353V21.1655C169.403 18.3951 167.972 16.4095 165.26 15.4093Z" fill="white"/>
</g>
<defs>
<clipPath id="clip0_3469_49770">
<rect width="168.743" height="30.6806" fill="white" transform="matrix(1 0 0 -1 0.65625 31.1816)"/>
</clipPath>
</defs>
</svg>
